<?xml version="1.0" encoding="UTF-8" standalone="no"?><svg xmlns="http://www.w3.org/2000/svg" xmlns:xlink="http://www.w3.org/1999/xlink" contentStyleType="text/css" height="700px" preserveAspectRatio="none" style="width:442px;height:700px;background:#FFFFFF;" version="1.1" viewBox="0 0 442 700" width="442px" zoomAndPan="magnify"><defs/><g><line style="stroke:#181818;stroke-width:0.5;stroke-dasharray:5.0,5.0;" x1="72" x2="72" y1="82.6094" y2="618.5859"/><line style="stroke:#181818;stroke-width:0.5;stroke-dasharray:5.0,5.0;" x1="279" x2="279" y1="82.6094" y2="618.5859"/><line style="stroke:#181818;stroke-width:0.5;stroke-dasharray:5.0,5.0;" x1="401.5" x2="401.5" y1="82.6094" y2="618.5859"/><text fill="#000000" font-family="sans-serif" font-size="14" lengthAdjust="spacing" textLength="129" x="5" y="79.5332">WarehouseManager</text><ellipse cx="72.5" cy="13.5" fill="#FFA500" rx="8" ry="8" style="stroke:#181818;stroke-width:0.5;"/><path d="M72.5,21.5 L72.5,48.5 M59.5,29.5 L85.5,29.5 M72.5,48.5 L59.5,63.5 M72.5,48.5 L85.5,63.5 " fill="none" style="stroke:#181818;stroke-width:0.5;"/><text fill="#000000" font-family="sans-serif" font-size="14" lengthAdjust="spacing" textLength="129" x="5" y="632.1191">WarehouseManager</text><ellipse cx="72.5" cy="643.6953" fill="#FFA500" rx="8" ry="8" style="stroke:#181818;stroke-width:0.5;"/><path d="M72.5,651.6953 L72.5,678.6953 M59.5,659.6953 L85.5,659.6953 M72.5,678.6953 L59.5,693.6953 M72.5,678.6953 L85.5,693.6953 " fill="none" style="stroke:#181818;stroke-width:0.5;"/><rect fill="#E2E2F0" height="31.6094" rx="2.5" ry="2.5" style="stroke:#181818;stroke-width:0.5;" width="73" x="243" y="50"/><text fill="#000000" font-family="sans-serif" font-size="14" lengthAdjust="spacing" textLength="59" x="250" y="71.5332">FrontEnd</text><rect fill="#E2E2F0" height="31.6094" rx="2.5" ry="2.5" style="stroke:#181818;stroke-width:0.5;" width="73" x="243" y="617.5859"/><text fill="#000000" font-family="sans-serif" font-size="14" lengthAdjust="spacing" textLength="59" x="250" y="639.1191">FrontEnd</text><rect fill="#E2E2F0" height="31.6094" rx="2.5" ry="2.5" style="stroke:#181818;stroke-width:0.5;" width="70" x="366.5" y="50"/><text fill="#000000" font-family="sans-serif" font-size="14" lengthAdjust="spacing" textLength="56" x="373.5" y="71.5332">BackEnd</text><rect fill="#E2E2F0" height="31.6094" rx="2.5" ry="2.5" style="stroke:#181818;stroke-width:0.5;" width="70" x="366.5" y="617.5859"/><text fill="#000000" font-family="sans-serif" font-size="14" lengthAdjust="spacing" textLength="56" x="373.5" y="639.1191">BackEnd</text><polygon fill="#181818" points="267.5,110.9609,277.5,114.9609,267.5,118.9609,271.5,114.9609" style="stroke:#181818;stroke-width:1.0;"/><line style="stroke:#181818;stroke-width:1.0;" x1="72.5" x2="273.5" y1="114.9609" y2="114.9609"/><text fill="#000000" font-family="sans-serif" font-size="13" lengthAdjust="spacing" textLength="116" x="79.5" y="110.1045">Select import option</text><polygon fill="#181818" points="389.5,141.3125,399.5,145.3125,389.5,149.3125,393.5,145.3125" style="stroke:#181818;stroke-width:1.0;"/><line style="stroke:#181818;stroke-width:1.0;" x1="279.5" x2="395.5" y1="145.3125" y2="145.3125"/><text fill="#000000" font-family="sans-serif" font-size="13" lengthAdjust="spacing" textLength="94" x="286.5" y="140.4561">Import JSON file</text><polygon fill="#181818" points="267.5,171.6641,277.5,175.6641,267.5,179.6641,271.5,175.6641" style="stroke:#181818;stroke-width:1.0;"/><line style="stroke:#181818;stroke-width:1.0;" x1="72.5" x2="273.5" y1="175.6641" y2="175.6641"/><text fill="#000000" font-family="sans-serif" font-size="13" lengthAdjust="spacing" textLength="180" x="79.5" y="170.8076">Select show Warehouse option</text><polygon fill="#181818" points="389.5,202.0156,399.5,206.0156,389.5,210.0156,393.5,206.0156" style="stroke:#181818;stroke-width:1.0;"/><line style="stroke:#181818;stroke-width:1.0;" x1="279.5" x2="395.5" y1="206.0156" y2="206.0156"/><text fill="#000000" font-family="sans-serif" font-size="13" lengthAdjust="spacing" textLength="98" x="286.5" y="201.1592">Get Warehouses</text><polygon fill="#181818" points="83.5,232.3672,73.5,236.3672,83.5,240.3672,79.5,236.3672" style="stroke:#181818;stroke-width:1.0;"/><line style="stroke:#181818;stroke-width:1.0;" x1="77.5" x2="400.5" y1="236.3672" y2="236.3672"/><text fill="#000000" font-family="sans-serif" font-size="13" lengthAdjust="spacing" textLength="120" x="89.5" y="231.5107">Display Warehouses</text><polygon fill="#181818" points="267.5,262.7188,277.5,266.7188,267.5,270.7188,271.5,266.7188" style="stroke:#181818;stroke-width:1.0;"/><line style="stroke:#181818;stroke-width:1.0;" x1="72.5" x2="273.5" y1="266.7188" y2="266.7188"/><text fill="#000000" font-family="sans-serif" font-size="13" lengthAdjust="spacing" textLength="156" x="79.5" y="261.8623">Select show WAisle option</text><polygon fill="#181818" points="389.5,293.0703,399.5,297.0703,389.5,301.0703,393.5,297.0703" style="stroke:#181818;stroke-width:1.0;"/><line style="stroke:#181818;stroke-width:1.0;" x1="279.5" x2="395.5" y1="297.0703" y2="297.0703"/><text fill="#000000" font-family="sans-serif" font-size="13" lengthAdjust="spacing" textLength="74" x="286.5" y="292.2139">Get WAisles</text><polygon fill="#181818" points="83.5,323.4219,73.5,327.4219,83.5,331.4219,79.5,327.4219" style="stroke:#181818;stroke-width:1.0;"/><line style="stroke:#181818;stroke-width:1.0;" x1="77.5" x2="400.5" y1="327.4219" y2="327.4219"/><text fill="#000000" font-family="sans-serif" font-size="13" lengthAdjust="spacing" textLength="96" x="89.5" y="322.5654">Display WAisles</text><polygon fill="#181818" points="267.5,353.7734,277.5,357.7734,267.5,361.7734,271.5,357.7734" style="stroke:#181818;stroke-width:1.0;"/><line style="stroke:#181818;stroke-width:1.0;" x1="72.5" x2="273.5" y1="357.7734" y2="357.7734"/><text fill="#000000" font-family="sans-serif" font-size="13" lengthAdjust="spacing" textLength="152" x="79.5" y="352.917">Select show WRow option</text><polygon fill="#181818" points="389.5,384.125,399.5,388.125,389.5,392.125,393.5,388.125" style="stroke:#181818;stroke-width:1.0;"/><line style="stroke:#181818;stroke-width:1.0;" x1="279.5" x2="395.5" y1="388.125" y2="388.125"/><text fill="#000000" font-family="sans-serif" font-size="13" lengthAdjust="spacing" textLength="70" x="286.5" y="383.2686">Get WRows</text><polygon fill="#181818" points="83.5,414.4766,73.5,418.4766,83.5,422.4766,79.5,418.4766" style="stroke:#181818;stroke-width:1.0;"/><line style="stroke:#181818;stroke-width:1.0;" x1="77.5" x2="400.5" y1="418.4766" y2="418.4766"/><text fill="#000000" font-family="sans-serif" font-size="13" lengthAdjust="spacing" textLength="92" x="89.5" y="413.6201">Display WRows</text><polygon fill="#181818" points="267.5,444.8281,277.5,448.8281,267.5,452.8281,271.5,448.8281" style="stroke:#181818;stroke-width:1.0;"/><line style="stroke:#181818;stroke-width:1.0;" x1="72.5" x2="273.5" y1="448.8281" y2="448.8281"/><text fill="#000000" font-family="sans-serif" font-size="13" lengthAdjust="spacing" textLength="172" x="79.5" y="443.9717">Select show AGVDock option</text><polygon fill="#181818" points="389.5,475.1797,399.5,479.1797,389.5,483.1797,393.5,479.1797" style="stroke:#181818;stroke-width:1.0;"/><line style="stroke:#181818;stroke-width:1.0;" x1="279.5" x2="395.5" y1="479.1797" y2="479.1797"/><text fill="#000000" font-family="sans-serif" font-size="13" lengthAdjust="spacing" textLength="90" x="286.5" y="474.3232">Get AGVDocks</text><polygon fill="#181818" points="83.5,505.5313,73.5,509.5313,83.5,513.5313,79.5,509.5313" style="stroke:#181818;stroke-width:1.0;"/><line style="stroke:#181818;stroke-width:1.0;" x1="77.5" x2="400.5" y1="509.5313" y2="509.5313"/><text fill="#000000" font-family="sans-serif" font-size="13" lengthAdjust="spacing" textLength="112" x="89.5" y="504.6748">Display AGVDocks</text><polygon fill="#181818" points="267.5,535.8828,277.5,539.8828,267.5,543.8828,271.5,539.8828" style="stroke:#181818;stroke-width:1.0;"/><line style="stroke:#181818;stroke-width:1.0;" x1="72.5" x2="273.5" y1="539.8828" y2="539.8828"/><text fill="#000000" font-family="sans-serif" font-size="13" lengthAdjust="spacing" textLength="183" x="79.5" y="535.0264">Select show Coordinates option</text><polygon fill="#181818" points="389.5,566.2344,399.5,570.2344,389.5,574.2344,393.5,570.2344" style="stroke:#181818;stroke-width:1.0;"/><line style="stroke:#181818;stroke-width:1.0;" x1="279.5" x2="395.5" y1="570.2344" y2="570.2344"/><text fill="#000000" font-family="sans-serif" font-size="13" lengthAdjust="spacing" textLength="94" x="286.5" y="565.3779">Get Coordinates</text><polygon fill="#181818" points="83.5,596.5859,73.5,600.5859,83.5,604.5859,79.5,600.5859" style="stroke:#181818;stroke-width:1.0;"/><line style="stroke:#181818;stroke-width:1.0;" x1="77.5" x2="400.5" y1="600.5859" y2="600.5859"/><text fill="#000000" font-family="sans-serif" font-size="13" lengthAdjust="spacing" textLength="116" x="89.5" y="595.7295">Display Coordinates</text><!--MD5=[9cee867067e84a5e226f0f56ac6a941d]
@startuml
actor WarehouseManager #orange

WarehouseManager -> FrontEnd: Select import option
FrontEnd -> BackEnd: Import JSON file

WarehouseManager -> FrontEnd: Select show Warehouse option
FrontEnd -> BackEnd: Get Warehouses
BackEnd -> WarehouseManager: Display Warehouses

WarehouseManager -> FrontEnd: Select show WAisle option
FrontEnd -> BackEnd: Get WAisles
BackEnd -> WarehouseManager: Display WAisles

WarehouseManager -> FrontEnd: Select show WRow option
FrontEnd -> BackEnd: Get WRows
BackEnd -> WarehouseManager: Display WRows

WarehouseManager -> FrontEnd: Select show AGVDock option
FrontEnd -> BackEnd: Get AGVDocks
BackEnd -> WarehouseManager: Display AGVDocks

WarehouseManager -> FrontEnd: Select show Coordinates option
FrontEnd -> BackEnd: Get Coordinates
BackEnd -> WarehouseManager: Display Coordinates

@enduml

PlantUML version 1.2022.4(Sat Apr 09 14:29:17 BST 2022)
(GPL source distribution)
Java Runtime: OpenJDK Runtime Environment
JVM: OpenJDK 64-Bit Server VM
Default Encoding: Cp1252
Language: en
Country: US
--></g></svg>