<?xml version="1.0" encoding="UTF-8" standalone="no"?><svg xmlns="http://www.w3.org/2000/svg" xmlns:xlink="http://www.w3.org/1999/xlink" contentStyleType="text/css" height="1563px" preserveAspectRatio="none" style="width:1347px;height:1563px;background:#FFFFFF;" version="1.1" viewBox="0 0 1347 1563" width="1347px" zoomAndPan="magnify"><defs/><g><!--MD5=[dc7fb56487618d91d540ed1a4700aa4b]
entity pm--><g id="elem_pm"><ellipse cx="92" cy="1112" fill="#F1F1F1" rx="8" ry="8" style="stroke:#181818;stroke-width:0.5;"/><path d="M92,1120 L92,1147 M79,1128 L105,1128 M92,1147 L79,1162 M92,1147 L105,1162 " fill="none" style="stroke:#181818;stroke-width:0.5;"/><text fill="#000000" font-family="sans-serif" font-size="14" lengthAdjust="spacing" textLength="117" x="33.5" y="1176.4951">Project Manager</text></g><!--MD5=[f6c8693f2725baec96dbc257309cbcf0]
entity sc--><g id="elem_sc"><ellipse cx="92" cy="577" fill="#F1F1F1" rx="8" ry="8" style="stroke:#181818;stroke-width:0.5;"/><path d="M92,585 L92,612 M79,593 L105,593 M92,612 L79,627 M92,612 L105,627 " fill="none" style="stroke:#181818;stroke-width:0.5;"/><text fill="#000000" font-family="sans-serif" font-size="14" lengthAdjust="spacing" textLength="79" x="52.5" y="641.4951">Sales Clerk</text></g><!--MD5=[df6a244ccd1c6c192a0ecf811348f33f]
entity we--><g id="elem_we"><ellipse cx="92" cy="192" fill="#F1F1F1" rx="8" ry="8" style="stroke:#181818;stroke-width:0.5;"/><path d="M92,200 L92,227 M79,208 L105,208 M92,227 L79,242 M92,227 L105,242 " fill="none" style="stroke:#181818;stroke-width:0.5;"/><text fill="#000000" font-family="sans-serif" font-size="14" lengthAdjust="spacing" textLength="155" x="14.5" y="256.4951">Warehouse Employee</text></g><!--MD5=[362e804371ee3eb571271ef8cc780c9e]
entity spc--><g id="elem_spc"><ellipse cx="92" cy="14" fill="#F1F1F1" rx="8" ry="8" style="stroke:#181818;stroke-width:0.5;"/><path d="M92,22 L92,49 M79,30 L105,30 M92,49 L79,64 M92,49 L105,64 " fill="none" style="stroke:#181818;stroke-width:0.5;"/><text fill="#000000" font-family="sans-serif" font-size="14" lengthAdjust="spacing" textLength="172" x="6" y="78.4951">Software Product Client</text></g><g id="elem_G002"><ellipse cx="789.4703" cy="960.3941" fill="#F1F1F1" rx="172.4703" ry="36.8941" style="stroke:#181818;stroke-width:0.5;"/><text fill="#000000" font-family="sans-serif" font-size="14" lengthAdjust="spacing" textLength="317" x="630.9703" y="963.2407">G002: Elaborate a Domain Model using DDD.</text></g><g id="elem_G003"><ellipse cx="789.4522" cy="1066.4904" fill="#F1F1F1" rx="157.9522" ry="33.9904" style="stroke:#181818;stroke-width:0.5;"/><text fill="#000000" font-family="sans-serif" font-size="14" lengthAdjust="spacing" textLength="287" x="645.9522" y="1069.3371">G003: Configure the project repository.</text></g><g id="elem_G004"><ellipse cx="789.6497" cy="1216.4299" fill="#F1F1F1" rx="390.1497" ry="80.4299" style="stroke:#181818;stroke-width:0.5;"/><text fill="#000000" font-family="sans-serif" font-size="14" lengthAdjust="spacing" textLength="758" x="410.6497" y="1219.2766">G004: Configure the project structure to facilitate/accelerate the development of upcoming user stories.</text></g><g id="elem_US1001"><ellipse cx="789.4876" cy="400.2975" fill="#F1F1F1" rx="156.9876" ry="33.7975" style="stroke:#181818;stroke-width:0.5;"/><text fill="#000000" font-family="sans-serif" font-size="14" lengthAdjust="spacing" textLength="285" x="646.9876" y="403.1442">US1001: Specify a new product for sale.</text></g><g id="elem_US1002"><ellipse cx="789.6213" cy="505.4243" fill="#F1F1F1" rx="167.6213" ry="35.9243" style="stroke:#181818;stroke-width:0.5;"/><text fill="#000000" font-family="sans-serif" font-size="14" lengthAdjust="spacing" textLength="307" x="636.1213" y="508.2709">US1002: View/search the products catalog.</text></g><g id="elem_US1003"><ellipse cx="789.2809" cy="606.5562" fill="#F1F1F1" rx="138.2809" ry="30.0562" style="stroke:#181818;stroke-width:0.5;"/><text fill="#000000" font-family="sans-serif" font-size="14" lengthAdjust="spacing" textLength="246" x="666.2809" y="609.4029">US1003: Register a new customer.</text></g><g id="elem_US1004"><ellipse cx="789.2851" cy="725.357" fill="#F1F1F1" rx="257.2851" ry="53.857" style="stroke:#181818;stroke-width:0.5;"/><text fill="#000000" font-family="sans-serif" font-size="14" lengthAdjust="spacing" textLength="490" x="544.2851" y="728.2037">US1004: Create a new products order on behalf of a given customer.</text></g><g id="elem_US2001"><ellipse cx="789.659" cy="156.7318" fill="#F1F1F1" rx="231.659" ry="48.7318" style="stroke:#181818;stroke-width:0.5;"/><text fill="#000000" font-family="sans-serif" font-size="14" lengthAdjust="spacing" textLength="438" x="570.659" y="159.5785">US2001: Set up the warehouse plant by uploading a JSON file.</text></g><g id="elem_US9001"><ellipse cx="789.5468" cy="43.5094" fill="#F1F1F1" rx="133.0468" ry="29.0094" style="stroke:#181818;stroke-width:0.5;"/><text fill="#000000" font-family="sans-serif" font-size="14" lengthAdjust="spacing" textLength="235" x="672.0468" y="46.356">US9001: Prepare a presentation.</text></g><g id="elem_US1900"><ellipse cx="789.5152" cy="1444.703" fill="#F1F1F1" rx="551.5152" ry="112.703" style="stroke:#181818;stroke-width:0.5;"/><text fill="#000000" font-family="sans-serif" font-size="14" lengthAdjust="spacing" textLength="1082" x="248.5152" y="1447.5497">US1900: The system has the possibility of being initialized (bootstrap) with some information related to the product catalog and auxiliary information.</text></g><g id="elem_US2002"><ellipse cx="789.4433" cy="285.4887" fill="#F1F1F1" rx="215.4433" ry="45.4887" style="stroke:#181818;stroke-width:0.5;"/><text fill="#000000" font-family="sans-serif" font-size="14" lengthAdjust="spacing" textLength="405" x="586.9433" y="288.3353">US2002: Configure the AGVs available on the warehouse.</text></g><g id="elem_US1005"><ellipse cx="789.485" cy="851.297" fill="#F1F1F1" rx="171.985" ry="36.797" style="stroke:#181818;stroke-width:0.5;"/><text fill="#000000" font-family="sans-serif" font-size="14" lengthAdjust="spacing" textLength="316" x="631.485" y="854.1437">US1005: Define a new category of products.</text></g><!--MD5=[6105c4e7e2c122e2f301e76acc8c11eb]
link pm to G002--><g id="link_pm_G002"><path d="M124.723,1103.291 C151.581,1073.854 192.837,1034.995 238,1015.5 C357.576,963.885 504.926,951.518 617.079,951.302 " fill="none" id="pm-to-G002" style="stroke:#181818;stroke-width:1.0;"/><polygon fill="#181818" points="622.393,951.301,613.393,947.301,617.393,951.301,613.393,955.301,622.393,951.301" style="stroke:#181818;stroke-width:1.0;"/></g><!--MD5=[ec6ea499bed4a4072b1702a651987537]
link pm to G003--><g id="link_pm_G003"><path d="M150.739,1131.484 C177.266,1127.104 209.173,1122.144 238,1118.5 C371.831,1101.582 524.605,1087.569 635.203,1078.37 " fill="none" id="pm-to-G003" style="stroke:#181818;stroke-width:1.0;"/><polygon fill="#181818" points="640.437,1077.935,631.1374,1074.6918,635.4541,1078.3479,631.798,1082.6645,640.437,1077.935" style="stroke:#181818;stroke-width:1.0;"/></g><!--MD5=[fe1c123aa7a99222caac9cdc9f429b8f]
link pm to G004--><g id="link_pm_G004"><path d="M150.507,1147.701 C215.447,1154.704 326.667,1166.698 438.233,1178.729 " fill="none" id="pm-to-G004" style="stroke:#181818;stroke-width:1.0;"/><polygon fill="#181818" points="443.208,1179.265,434.6884,1174.3238,438.2368,1178.7293,433.8312,1182.2777,443.208,1179.265" style="stroke:#181818;stroke-width:1.0;"/></g><!--MD5=[e01d833330bc8351945980f3681a71f0]
link pm to US1900--><g id="link_pm_US1900"><path d="M114.751,1179.765 C139.441,1219.63 183.461,1280.869 238,1314.5 C274.923,1337.268 315.494,1356.049 357.355,1371.542 " fill="none" id="pm-to-US1900" style="stroke:#181818;stroke-width:1.0;"/><polygon fill="#181818" points="362.2,1373.318,355.1274,1366.4639,357.5057,1371.5966,352.3731,1373.9749,362.2,1373.318" style="stroke:#181818;stroke-width:1.0;"/></g><!--MD5=[a220148d5994b99d85bc496fd414977a]
link sc to US1001--><g id="link_sc_US1001"><path d="M116.848,568.319 C142.044,531.68 185.383,478.23 238,452.5 C363.657,391.05 524.613,382.71 639.977,386.92 " fill="none" id="sc-to-US1001" style="stroke:#181818;stroke-width:1.0;"/><polygon fill="#181818" points="645.091,387.12,636.2511,382.7776,640.0947,386.9282,635.9442,390.7718,645.091,387.12" style="stroke:#181818;stroke-width:1.0;"/></g><!--MD5=[a3f302414b821388721eb2baf339507d]
link sc to US1002--><g id="link_sc_US1002"><path d="M131.769,591.404 C160.624,580.794 201.214,567.172 238,559.5 C364.433,533.13 509.957,519.56 619.619,512.63 " fill="none" id="sc-to-US1002" style="stroke:#181818;stroke-width:1.0;"/><polygon fill="#181818" points="624.814,512.3,615.5812,508.8715,619.8238,512.6131,616.0822,516.8558,624.814,512.3" style="stroke:#181818;stroke-width:1.0;"/></g><!--MD5=[f03b20eac2af094cf1fb71e417012fbc]
link sc to US1003--><g id="link_sc_US1003"><path d="M131.883,606.5 C228.456,606.5 483.134,606.5 645.441,606.5 " fill="none" id="sc-to-US1003" style="stroke:#181818;stroke-width:1.0;"/><polygon fill="#181818" points="650.696,606.5,641.696,602.5,645.696,606.5,641.696,610.5,650.696,606.5" style="stroke:#181818;stroke-width:1.0;"/></g><!--MD5=[2dbe668ae5861d8de2e10128c405854e]
link sc to US1004--><g id="link_sc_US1004"><path d="M131.507,621.49 C160.403,632.185 201.157,646.107 238,654.5 C337.69,677.209 449.309,693.29 545.843,704.337 " fill="none" id="sc-to-US1004" style="stroke:#181818;stroke-width:1.0;"/><polygon fill="#181818" points="551.01,704.925,542.5203,699.9325,546.0421,704.3594,541.6153,707.8812,551.01,704.925" style="stroke:#181818;stroke-width:1.0;"/></g><!--MD5=[eb605b6e9250efbd406989a50038beac]
link sc to US1005--><g id="link_sc_US1005"><path d="M109.983,644.596 C132.291,689.646 176.036,762.871 238,797.5 C357.565,864.32 514.782,873.445 630.58,868.423 " fill="none" id="sc-to-US1005" style="stroke:#181818;stroke-width:1.0;"/><polygon fill="#181818" points="635.717,868.189,626.5446,864.602,630.7222,868.4162,626.908,872.5938,635.717,868.189" style="stroke:#181818;stroke-width:1.0;"/></g><!--MD5=[8d96b20058dc22d60e87dd6fe974e141]
link we to US2001--><g id="link_we_US2001"><path d="M169.754,214.33 C266.107,205.32 435.388,189.5 572.556,176.68 " fill="none" id="we-to-US2001" style="stroke:#181818;stroke-width:1.0;"/><polygon fill="#181818" points="577.831,176.19,568.498,173.0444,572.8527,176.655,569.242,181.0097,577.831,176.19" style="stroke:#181818;stroke-width:1.0;"/></g><!--MD5=[ffc4a86a47ad1e6539fb32917a27e994]
link we to US2002--><g id="link_we_US2002"><path d="M169.754,228.56 C269.334,237.73 446.806,254.06 586.223,266.89 " fill="none" id="we-to-US2002" style="stroke:#181818;stroke-width:1.0;"/><polygon fill="#181818" points="591.582,267.38,582.9875,262.5702,586.6031,266.9207,582.2526,270.5364,591.582,267.38" style="stroke:#181818;stroke-width:1.0;"/></g><!--MD5=[bd0971f46b873691336ad19c1982193a]
link spc to US9001--><g id="link_spc_US9001"><path d="M178.282,43.5 C296.195,43.5 510.361,43.5 651.027,43.5 " fill="none" id="spc-to-US9001" style="stroke:#181818;stroke-width:1.0;"/><polygon fill="#181818" points="656.416,43.5,647.416,39.5,651.416,43.5,647.416,47.5,656.416,43.5" style="stroke:#181818;stroke-width:1.0;"/></g><!--MD5=[a1acf061edaa02f854b14d0ac30f32ab]
@startuml
left to right direction
actor "Project Manager" as pm
actor "Sales Clerk" as sc
actor "Warehouse Employee" as we
actor "Software Product Client" as spc

  usecase "G002: Elaborate a Domain Model using DDD." as G002
  usecase "G003: Configure the project repository." as G003
  usecase "G004: Configure the project structure to facilitate/accelerate the development of upcoming user stories." as G004
  usecase "US1001: Specify a new product for sale." as US1001
  usecase "US1002: View/search the products catalog." as US1002
  usecase "US1003: Register a new customer." as US1003
  usecase "US1004: Create a new products order on behalf of a given customer." as US1004
  usecase "US2001: Set up the warehouse plant by uploading a JSON file." as US2001
  usecase "US9001: Prepare a presentation." as US9001
  usecase "US1900: The system has the possibility of being initialized (bootstrap) with some information related to the product catalog and auxiliary information." as US1900
  usecase "US2002: Configure the AGVs available on the warehouse." as US2002
  usecase "US1005: Define a new category of products." as US1005

pm - -> G002
pm - -> G003
pm - -> G004
pm - -> US1900

sc - -> US1001
sc - -> US1002
sc - -> US1003
sc - -> US1004
sc - -> US1005

we - -> US2001
we - -> US2002

spc - -> US9001
@enduml

PlantUML version 1.2022.4beta2(Unknown compile time)
(GPL source distribution)
Java Runtime: Java(TM) SE Runtime Environment
JVM: Java HotSpot(TM) 64-Bit Server VM
Default Encoding: UTF-8
Language: en
Country: US
--></g></svg>