<?xml version="1.0" encoding="UTF-8" standalone="no"?><svg xmlns="http://www.w3.org/2000/svg" xmlns:xlink="http://www.w3.org/1999/xlink" contentStyleType="text/css" height="6174px" preserveAspectRatio="none" style="width:1500px;height:6174px;background:#FFFFFF;" version="1.1" viewBox="0 0 1500 6174" width="1500px" zoomAndPan="magnify"><defs/><g><!--MD5=[dc7fb56487618d91d540ed1a4700aa4b]
entity pm--><g id="elem_pm"><ellipse cx="92" cy="4462.5" fill="#F1F1F1" rx="8" ry="8" style="stroke:#181818;stroke-width:0.5;"/><path d="M92,4470.5 L92,4497.5 M79,4478.5 L105,4478.5 M92,4497.5 L79,4512.5 M92,4497.5 L105,4512.5 " fill="none" style="stroke:#181818;stroke-width:0.5;"/><text fill="#000000" font-family="sans-serif" font-size="14" lengthAdjust="spacing" textLength="117" x="33.5" y="4526.9951">Project Manager</text></g><!--MD5=[f6c8693f2725baec96dbc257309cbcf0]
entity sc--><g id="elem_sc"><ellipse cx="92" cy="2425.5" fill="#F1F1F1" rx="8" ry="8" style="stroke:#181818;stroke-width:0.5;"/><path d="M92,2433.5 L92,2460.5 M79,2441.5 L105,2441.5 M92,2460.5 L79,2475.5 M92,2460.5 L105,2475.5 " fill="none" style="stroke:#181818;stroke-width:0.5;"/><text fill="#000000" font-family="sans-serif" font-size="14" lengthAdjust="spacing" textLength="79" x="52.5" y="2489.9951">Sales Clerk</text></g><!--MD5=[df6a244ccd1c6c192a0ecf811348f33f]
entity we--><g id="elem_we"><ellipse cx="92" cy="1407.5" fill="#F1F1F1" rx="8" ry="8" style="stroke:#181818;stroke-width:0.5;"/><path d="M92,1415.5 L92,1442.5 M79,1423.5 L105,1423.5 M92,1442.5 L79,1457.5 M92,1442.5 L105,1457.5 " fill="none" style="stroke:#181818;stroke-width:0.5;"/><text fill="#000000" font-family="sans-serif" font-size="14" lengthAdjust="spacing" textLength="155" x="14.5" y="1471.9951">Warehouse Employee</text></g><!--MD5=[362e804371ee3eb571271ef8cc780c9e]
entity spc--><g id="elem_spc"><ellipse cx="92" cy="917.5" fill="#F1F1F1" rx="8" ry="8" style="stroke:#181818;stroke-width:0.5;"/><path d="M92,925.5 L92,952.5 M79,933.5 L105,933.5 M92,952.5 L79,967.5 M92,952.5 L105,967.5 " fill="none" style="stroke:#181818;stroke-width:0.5;"/><text fill="#000000" font-family="sans-serif" font-size="14" lengthAdjust="spacing" textLength="172" x="6" y="981.9951">Software Product Client</text></g><!--MD5=[31b50539c062e48f418cd0b43b66a14f]
entity sm--><g id="elem_sm"><ellipse cx="92" cy="659.5" fill="#F1F1F1" rx="8" ry="8" style="stroke:#181818;stroke-width:0.5;"/><path d="M92,667.5 L92,694.5 M79,675.5 L105,675.5 M92,694.5 L79,709.5 M92,694.5 L105,709.5 " fill="none" style="stroke:#181818;stroke-width:0.5;"/><text fill="#000000" font-family="sans-serif" font-size="14" lengthAdjust="spacing" textLength="102" x="41" y="723.9951">Sales Manager</text></g><!--MD5=[8e9b2d9d80e066cced8e5d90e9bdea61]
entity c--><g id="elem_c"><ellipse cx="92" cy="245.5" fill="#F1F1F1" rx="8" ry="8" style="stroke:#181818;stroke-width:0.5;"/><path d="M92,253.5 L92,280.5 M79,261.5 L105,261.5 M92,280.5 L79,295.5 M92,280.5 L105,295.5 " fill="none" style="stroke:#181818;stroke-width:0.5;"/><text fill="#000000" font-family="sans-serif" font-size="14" lengthAdjust="spacing" textLength="70" x="57" y="309.9951">Customer</text></g><g id="elem_G002"><ellipse cx="866.4703" cy="3003.8941" fill="#F1F1F1" rx="172.4703" ry="36.8941" style="stroke:#181818;stroke-width:0.5;"/><text fill="#000000" font-family="sans-serif" font-size="14" lengthAdjust="spacing" textLength="317" x="707.9703" y="3006.7407">G002: Elaborate a Domain Model using DDD.</text></g><g id="elem_G003"><ellipse cx="866.4522" cy="3109.9904" fill="#F1F1F1" rx="157.9522" ry="33.9904" style="stroke:#181818;stroke-width:0.5;"/><text fill="#000000" font-family="sans-serif" font-size="14" lengthAdjust="spacing" textLength="287" x="722.9522" y="3112.8371">G003: Configure the project repository.</text></g><g id="elem_G004"><ellipse cx="866.6497" cy="3259.9299" fill="#F1F1F1" rx="390.1497" ry="80.4299" style="stroke:#181818;stroke-width:0.5;"/><text fill="#000000" font-family="sans-serif" font-size="14" lengthAdjust="spacing" textLength="758" x="487.6497" y="3262.7766">G004: Configure the project structure to facilitate/accelerate the development of upcoming user stories.</text></g><g id="elem_US1001"><ellipse cx="866.4876" cy="2188.7975" fill="#F1F1F1" rx="156.9876" ry="33.7975" style="stroke:#181818;stroke-width:0.5;"/><text fill="#000000" font-family="sans-serif" font-size="14" lengthAdjust="spacing" textLength="285" x="723.9876" y="2191.6442">US1001: Specify a new product for sale.</text></g><g id="elem_US1002"><ellipse cx="866.6213" cy="2293.9243" fill="#F1F1F1" rx="167.6213" ry="35.9243" style="stroke:#181818;stroke-width:0.5;"/><text fill="#000000" font-family="sans-serif" font-size="14" lengthAdjust="spacing" textLength="307" x="713.1213" y="2296.7709">US1002: View/search the products catalog.</text></g><g id="elem_US1003"><ellipse cx="866.2809" cy="2395.0562" fill="#F1F1F1" rx="138.2809" ry="30.0562" style="stroke:#181818;stroke-width:0.5;"/><text fill="#000000" font-family="sans-serif" font-size="14" lengthAdjust="spacing" textLength="246" x="743.2809" y="2397.9029">US1003: Register a new customer.</text></g><g id="elem_US1004"><ellipse cx="866.2851" cy="2513.857" fill="#F1F1F1" rx="257.2851" ry="53.857" style="stroke:#181818;stroke-width:0.5;"/><text fill="#000000" font-family="sans-serif" font-size="14" lengthAdjust="spacing" textLength="490" x="621.2851" y="2516.7037">US1004: Create a new products order on behalf of a given customer.</text></g><g id="elem_US2001"><ellipse cx="866.659" cy="1105.2318" fill="#F1F1F1" rx="231.659" ry="48.7318" style="stroke:#181818;stroke-width:0.5;"/><text fill="#000000" font-family="sans-serif" font-size="14" lengthAdjust="spacing" textLength="438" x="647.659" y="1108.0785">US2001: Set up the warehouse plant by uploading a JSON file.</text></g><g id="elem_US9001"><ellipse cx="866.5468" cy="900.0094" fill="#F1F1F1" rx="133.0468" ry="29.0094" style="stroke:#181818;stroke-width:0.5;"/><text fill="#000000" font-family="sans-serif" font-size="14" lengthAdjust="spacing" textLength="235" x="749.0468" y="902.856">US9001: Prepare a presentation.</text></g><g id="elem_US1900"><ellipse cx="866.5152" cy="3488.203" fill="#F1F1F1" rx="551.5152" ry="112.703" style="stroke:#181818;stroke-width:0.5;"/><text fill="#000000" font-family="sans-serif" font-size="14" lengthAdjust="spacing" textLength="1082" x="325.5152" y="3491.0497">US1900: The system has the possibility of being initialized (bootstrap) with some information related to the product catalog and auxiliary information.</text></g><g id="elem_US2002"><ellipse cx="866.4433" cy="1233.9887" fill="#F1F1F1" rx="215.4433" ry="45.4887" style="stroke:#181818;stroke-width:0.5;"/><text fill="#000000" font-family="sans-serif" font-size="14" lengthAdjust="spacing" textLength="405" x="663.9433" y="1236.8353">US2002: Configure the AGVs available on the warehouse.</text></g><g id="elem_US1005"><ellipse cx="866.485" cy="2639.797" fill="#F1F1F1" rx="171.985" ry="36.797" style="stroke:#181818;stroke-width:0.5;"/><text fill="#000000" font-family="sans-serif" font-size="14" lengthAdjust="spacing" textLength="316" x="708.485" y="2642.6437">US1005: Define a new category of products.</text></g><g id="elem_US2003"><ellipse cx="866.3886" cy="1437.1777" fill="#F1F1F1" rx="601.3886" ry="122.6777" style="stroke:#181818;stroke-width:0.5;"/><text fill="#000000" font-family="sans-serif" font-size="14" lengthAdjust="spacing" textLength="1182" x="275.3886" y="1440.0244">US2003: Access the list of orders that need to be prepared by an AGV and be able to ask/force any of those orders to be immediately prepared by an AGV available.</text></g><g id="elem_US3000"><ellipse cx="866.3383" cy="3697.7677" fill="#F1F1F1" rx="296.8383" ry="61.7677" style="stroke:#181818;stroke-width:0.5;"/><text fill="#000000" font-family="sans-serif" font-size="14" lengthAdjust="spacing" textLength="570" x="581.3383" y="3700.6143">US3000: Specify a grammar allowing to express several kinds of questionnaires.</text></g><g id="elem_US3001"><ellipse cx="866.6581" cy="601.1316" fill="#F1F1F1" rx="388.6581" ry="80.1316" style="stroke:#181818;stroke-width:0.5;"/><text fill="#000000" font-family="sans-serif" font-size="14" lengthAdjust="spacing" textLength="755" x="489.1581" y="603.9783">US3001: Create a new questionnaire to be further answered by customers meeting the specified criteria.</text></g><g id="elem_US4001"><ellipse cx="866.4366" cy="3914.1873" fill="#F1F1F1" rx="581.4366" ry="118.6873" style="stroke:#181818;stroke-width:0.5;"/><text fill="#000000" font-family="sans-serif" font-size="14" lengthAdjust="spacing" textLength="1142" x="295.4366" y="3917.034">US4001: The "AGVManager" component supports properly, at request, the needs of the "BackOfficeApp" application as well as the needs the AGV digital twin.</text></g><g id="elem_US4002"><ellipse cx="866.4214" cy="4157.0843" fill="#F1F1F1" rx="435.9214" ry="89.5843" style="stroke:#181818;stroke-width:0.5;"/><text fill="#000000" font-family="sans-serif" font-size="14" lengthAdjust="spacing" textLength="850" x="441.4214" y="4159.931">US4002: The "AGVManager" component is enhanced with a basic FIFO algorithm to automatically assign tasks to AGVs.</text></g><g id="elem_US5001"><ellipse cx="866.2834" cy="4377.7567" fill="#F1F1F1" rx="469.2834" ry="96.2567" style="stroke:#181818;stroke-width:0.5;"/><text fill="#000000" font-family="sans-serif" font-size="14" lengthAdjust="spacing" textLength="917" x="407.7834" y="4380.6034">US5001: Start developing the input communication module of the AGV digital twin to accept requests from the "AGVManager".</text></g><g id="elem_US5002"><ellipse cx="866.2872" cy="4606.0574" fill="#F1F1F1" rx="468.2872" ry="96.0574" style="stroke:#181818;stroke-width:0.5;"/><text fill="#000000" font-family="sans-serif" font-size="14" lengthAdjust="spacing" textLength="915" x="408.7872" y="4608.9041">US5002: Start developing the output communication module of the AGV digital twin to update its status on the "AGVManager".</text></g><g id="elem_US2004"><ellipse cx="866.3287" cy="1723.0657" fill="#F1F1F1" rx="628.3287" ry="128.0657" style="stroke:#181818;stroke-width:0.5;"/><text fill="#000000" font-family="sans-serif" font-size="14" lengthAdjust="spacing" textLength="1232" x="248.3287" y="1725.9124">US2004: Access the list of orders that have already been prepared by the AGVs and be able to update any of those orders as having been dispatched for customer delivery.</text></g><g id="elem_US2005"><ellipse cx="866.4555" cy="2003.1911" fill="#F1F1F1" rx="573.9555" ry="117.1911" style="stroke:#181818;stroke-width:0.5;"/><text fill="#000000" font-family="sans-serif" font-size="14" lengthAdjust="spacing" textLength="1127" x="302.9555" y="2006.0378">US2005: Open a web dashboard presenting the current status of the AGVs as well as their position in the warehouse layout and keeps updated automatically.</text></g><g id="elem_US1501"><ellipse cx="866.4431" cy="77.1886" fill="#F1F1F1" rx="343.9431" ry="71.1886" style="stroke:#181818;stroke-width:0.5;"/><text fill="#000000" font-family="sans-serif" font-size="14" lengthAdjust="spacing" textLength="665" x="533.9431" y="80.0353">US1501: View/search the product catalog and be able to add a product to the shopping cart.</text></g><g id="elem_US1901"><ellipse cx="866.437" cy="4825.8874" fill="#F1F1F1" rx="432.437" ry="88.8874" style="stroke:#181818;stroke-width:0.5;"/><text fill="#000000" font-family="sans-serif" font-size="14" lengthAdjust="spacing" textLength="843" x="444.937" y="4828.7341">US1901: The "OrdersServer" component supports properly, at request, the needs of the "CustomerAppMain" application.</text></g><g id="elem_US3002"><ellipse cx="866.4643" cy="775.7929" fill="#F1F1F1" rx="284.4643" ry="59.2929" style="stroke:#181818;stroke-width:0.5;"/><text fill="#000000" font-family="sans-serif" font-size="14" lengthAdjust="spacing" textLength="545" x="593.9643" y="778.6395">US3002: Get a statistical report regarding a previously set up questionnaire.</text></g><g id="elem_US3501"><ellipse cx="866.3738" cy="274.7748" fill="#F1F1F1" rx="446.8738" ry="91.7748" style="stroke:#181818;stroke-width:0.5;"/><text fill="#000000" font-family="sans-serif" font-size="14" lengthAdjust="spacing" textLength="872" x="430.3738" y="277.6214">US3501: List of questionnaires that the system is asking me to answer and be able to answer any of those questionnaires.</text></g><g id="elem_US4003"><ellipse cx="866.5144" cy="5036.1029" fill="#F1F1F1" rx="416.0144" ry="85.6029" style="stroke:#181818;stroke-width:0.5;"/><text fill="#000000" font-family="sans-serif" font-size="14" lengthAdjust="spacing" textLength="810" x="461.5144" y="5038.9496">US4003: Communications (of the AGVManager) made through the SPOMS2022 protocol to be secured/protected.</text></g><g id="elem_US5003"><ellipse cx="866.3612" cy="5248.8722" fill="#F1F1F1" rx="449.8612" ry="92.3722" style="stroke:#181818;stroke-width:0.5;"/><text fill="#000000" font-family="sans-serif" font-size="14" lengthAdjust="spacing" textLength="878" x="427.3612" y="5251.7189">US5003: Input communications (of the AGV Digital Twin) made through the SPOMS2022 protocol to be secured/protected.</text></g><g id="elem_US5004"><ellipse cx="866.3285" cy="5470.9657" fill="#F1F1F1" rx="457.8285" ry="93.9657" style="stroke:#181818;stroke-width:0.5;"/><text fill="#000000" font-family="sans-serif" font-size="14" lengthAdjust="spacing" textLength="894" x="419.3285" y="5473.8124">US5004: Output communications  (of the AGV Digital Twin) made through the SPOMS2022 protocol to be secured/protected.</text></g><g id="elem_US5100"><ellipse cx="866.6961" cy="5701.0392" fill="#F1F1F1" rx="493.1961" ry="101.0392" style="stroke:#181818;stroke-width:0.5;"/><text fill="#000000" font-family="sans-serif" font-size="14" lengthAdjust="spacing" textLength="965" x="384.1961" y="5703.8859">US5100: Develop and integrate the others components/parts of the AGV digital twin (e.g.: movement, obstacle sensors, control unit).</text></g><g id="elem_US9002"><ellipse cx="866.7013" cy="992.9403" fill="#F1F1F1" rx="130.2013" ry="28.4403" style="stroke:#181818;stroke-width:0.5;"/><text fill="#000000" font-family="sans-serif" font-size="14" lengthAdjust="spacing" textLength="229" x="752.2013" y="995.7869">US9002: Prepare a presentation</text></g><g id="elem_US1006"><ellipse cx="866.5593" cy="2822.1119" fill="#F1F1F1" rx="536.0593" ry="109.6119" style="stroke:#181818;stroke-width:0.5;"/><text fill="#000000" font-family="sans-serif" font-size="14" lengthAdjust="spacing" textLength="1047" x="341.0593" y="2824.9585">US1006: Access a list of orders that had been dispatched for customer delivery and be able to update some of those orders to as being delivered.</text></g><g id="elem_US2006"><ellipse cx="866.4757" cy="5907.7951" fill="#F1F1F1" rx="339.4757" ry="70.2951" style="stroke:#181818;stroke-width:0.5;"/><text fill="#000000" font-family="sans-serif" font-size="14" lengthAdjust="spacing" textLength="656" x="538.4757" y="5910.6418">US2006: Communications made through the SPOMS2022 protocol to be secured/protected.</text></g><g id="elem_US1502"><ellipse cx="866.3868" cy="443.7774" fill="#F1F1F1" rx="194.3868" ry="41.2774" style="stroke:#181818;stroke-width:0.5;"/><text fill="#000000" font-family="sans-serif" font-size="14" lengthAdjust="spacing" textLength="362" x="685.3868" y="446.624">US1502: View/check the status of my open orders.</text></g><g id="elem_US1902"><ellipse cx="866.7304" cy="6091.1461" fill="#F1F1F1" rx="376.2304" ry="77.6461" style="stroke:#181818;stroke-width:0.5;"/><text fill="#000000" font-family="sans-serif" font-size="14" lengthAdjust="spacing" textLength="730" x="501.7304" y="6093.9928">US1902: I want the communications made through the SPOMS2022 protocol to be secured/protected.</text></g><!--MD5=[6105c4e7e2c122e2f301e76acc8c11eb]
link pm to G002--><g id="link_pm_G002"><path d="M94.016,4453.78 C100.1679,4236.22 135.651,3159.98 238,3059 C371.479,2927.3 607.661,2947.35 749.086,2974.95 " fill="none" id="pm-to-G002" style="stroke:#181818;stroke-width:1.0;"/><polygon fill="#181818" points="754.077,2975.93,746.0235,2970.2607,749.1719,2974.9604,744.4722,2978.1088,754.077,2975.93" style="stroke:#181818;stroke-width:1.0;"/></g><!--MD5=[ec6ea499bed4a4072b1702a651987537]
link pm to G003--><g id="link_pm_G003"><path d="M94.3204,4453.83 C101.8837,4245.82 142.762,3254.8 238,3162 C375.823,3027.7 620.818,3053.52 760.42,3082.74 " fill="none" id="pm-to-G003" style="stroke:#181818;stroke-width:1.0;"/><polygon fill="#181818" points="765.342,3083.78,757.3656,3078.0028,760.4504,3082.7445,755.7087,3085.8293,765.342,3083.78" style="stroke:#181818;stroke-width:1.0;"/></g><!--MD5=[fe1c123aa7a99222caac9cdc9f429b8f]
link pm to G004--><g id="link_pm_G004"><path d="M95.1924,4453.82 C106.374,4265.19 159.597,3438.61 238,3358 C301.662,3292.55 389.797,3259.18 479.91,3244 " fill="none" id="pm-to-G004" style="stroke:#181818;stroke-width:1.0;"/><polygon fill="#181818" points="485.023,3243.16,475.4932,3240.6735,480.0893,3243.9714,476.7914,3248.5674,485.023,3243.16" style="stroke:#181818;stroke-width:1.0;"/></g><!--MD5=[e01d833330bc8351945980f3681a71f0]
link pm to US1900--><g id="link_pm_US1900"><path d="M93.812,4453.86 C97.8478,4301.83 120.586,3741.36 238,3619 C272.082,3583.48 313.119,3556.33 357.691,3535.71 " fill="none" id="pm-to-US1900" style="stroke:#181818;stroke-width:1.0;"/><polygon fill="#181818" points="362.295,3533.61,352.4467,3533.7121,357.7472,3535.688,355.7714,3540.9885,362.295,3533.61" style="stroke:#181818;stroke-width:1.0;"/></g><!--MD5=[c1b5b8f857704f28499997a5c8c9add7]
link pm to US3000--><g id="link_pm_US3000"><path d="M95.0698,4453.84 C103.1794,4319.48 137.454,3871.41 238,3778 C335.314,3687.59 480.742,3664.75 607.098,3665.82 " fill="none" id="pm-to-US3000" style="stroke:#181818;stroke-width:1.0;"/><polygon fill="#181818" points="612.341,3665.88,603.3861,3661.78,607.3413,3665.8243,603.297,3669.7795,612.341,3665.88" style="stroke:#181818;stroke-width:1.0;"/></g><!--MD5=[5208543bdaa4af0f05d10344e9aba2ac]
link pm to US4001--><g id="link_pm_US4001"><path d="M93.532,4453.97 C96.9078,4368.14 117.73,4158.42 238,4050 C272.65,4018.76 312.741,3994.11 355.567,3974.71 " fill="none" id="pm-to-US4001" style="stroke:#181818;stroke-width:1.0;"/><polygon fill="#181818" points="360.26,3972.61,350.4112,3972.6389,355.6969,3974.6541,353.6817,3979.9398,360.26,3972.61" style="stroke:#181818;stroke-width:1.0;"/></g><!--MD5=[68f4e6fd3f030a515d9d1b839f26f74c]
link pm to US4002--><g id="link_pm_US4002"><path d="M105.9797,4453.83 C125.764,4401.88 168.655,4310.09 238,4264 C297.77,4224.27 367.597,4197.81 438.531,4180.45 " fill="none" id="pm-to-US4002" style="stroke:#181818;stroke-width:1.0;"/><polygon fill="#181818" points="443.64,4179.22,433.9521,4177.447,438.78,4180.395,435.832,4185.2229,443.64,4179.22" style="stroke:#181818;stroke-width:1.0;"/></g><!--MD5=[4038848d0b08427aaf041b8c3472c19a]
link pm to US5001--><g id="link_pm_US5001"><path d="M150.747,4483.48 C222.42,4472.9 350.964,4453.93 479.475,4434.97 " fill="none" id="pm-to-US5001" style="stroke:#181818;stroke-width:1.0;"/><polygon fill="#181818" points="484.432,4434.24,474.9453,4431.5939,479.4853,4434.9685,476.1108,4439.5085,484.432,4434.24" style="stroke:#181818;stroke-width:1.0;"/></g><!--MD5=[a346c39e81aebbead9a1f9cf51c378e3]
link pm to US5002--><g id="link_pm_US5002"><path d="M150.747,4500.52 C222.68,4511.14 351.895,4530.21 480.87,4549.24 " fill="none" id="pm-to-US5002" style="stroke:#181818;stroke-width:1.0;"/><polygon fill="#181818" points="485.845,4549.97,477.526,4544.698,480.8987,4549.2395,476.3572,4552.6121,485.845,4549.97" style="stroke:#181818;stroke-width:1.0;"/></g><!--MD5=[9a519a8f2ac74d7dd0f5d415af76b114]
link pm to US1901--><g id="link_pm_US1901"><path d="M105.9697,4530.18 C125.742,4582.16 168.62,4673.96 238,4720 C298.347,4760.04 368.933,4786.53 440.557,4803.78 " fill="none" id="pm-to-US1901" style="stroke:#181818;stroke-width:1.0;"/><polygon fill="#181818" points="445.715,4805,437.8814,4799.0305,440.85,4803.8458,436.0347,4806.8144,445.715,4805" style="stroke:#181818;stroke-width:1.0;"/></g><!--MD5=[bc9856ecf45903b118faaed366267978]
link pm to US4003--><g id="link_pm_US4003"><path d="M93.1703,4530.06 C95.7775,4616.4 115.082,4827.79 238,4933 C296.578,4983.14 369.898,5013.58 445.557,5031.35 " fill="none" id="pm-to-US4003" style="stroke:#181818;stroke-width:1.0;"/><polygon fill="#181818" points="450.544,5032.5,442.6757,5026.5763,445.6724,5031.3742,440.8745,5034.3709,450.544,5032.5" style="stroke:#181818;stroke-width:1.0;"/></g><!--MD5=[aae74578820ae06648872592d4dee9dd]
link pm to US5003--><g id="link_pm_US5003"><path d="M96.1154,4530.34 C107.145,4656.21 148.573,5053.67 238,5139 C287.231,5185.973 349.04,5216.721 414.538,5236.331 " fill="none" id="pm-to-US5003" style="stroke:#181818;stroke-width:1.0;"/><polygon fill="#181818" points="419.665,5237.841,412.1623,5231.4607,414.8688,5236.428,409.9015,5239.1346,419.665,5237.841" style="stroke:#181818;stroke-width:1.0;"/></g><!--MD5=[58c92a9152611796a213783989059316]
link pm to US5004--><g id="link_pm_US5004"><path d="M93.7592,4530.23 C97.5855,4681.98 119.61,5239.311 238,5359 C284.645,5406.157 343.847,5437.372 407.168,5457.525 " fill="none" id="pm-to-US5004" style="stroke:#181818;stroke-width:1.0;"/><polygon fill="#181818" points="412.126,5459.077,404.7328,5452.5701,407.3545,5457.5827,402.3419,5460.2044,412.126,5459.077" style="stroke:#181818;stroke-width:1.0;"/></g><!--MD5=[de8179e54099994506c99d3d8c037267]
link pm to US5100--><g id="link_pm_US5100"><path d="M95.4477,4530.21 C107.589,4714.35 163.741,5504.639 238,5583 C277.875,5625.078 327.646,5654.889 381.604,5675.689 " fill="none" id="pm-to-US5100" style="stroke:#181818;stroke-width:1.0;"/><polygon fill="#181818" points="386.501,5677.547,379.5063,5670.6134,381.8264,5675.7726,376.6673,5678.0927,386.501,5677.547" style="stroke:#181818;stroke-width:1.0;"/></g><!--MD5=[3747af3b9bdf3917586a78a765378aa7]
link pm to US2006--><g id="link_pm_US2006"><path d="M94.4137,4530.02 C102.4736,4737.25 145.558,5724.688 238,5820 C319.598,5904.132 441.963,5933.478 557.028,5939.068 " fill="none" id="pm-to-US2006" style="stroke:#181818;stroke-width:1.0;"/><polygon fill="#181818" points="562.155,5939.302,553.346,5934.8972,557.1602,5939.0748,552.9826,5942.889,562.155,5939.302" style="stroke:#181818;stroke-width:1.0;"/></g><!--MD5=[9568f1980ac54fefafe9df1bdb9a7565]
link pm to US1902--><g id="link_pm_US1902"><path d="M93.9257,4530.16 C99.7009,4753.61 133.988,5886.198 238,5996 C306.368,6068.173 404.491,6101.2728 502.903,6113.876 " fill="none" id="pm-to-US1902" style="stroke:#181818;stroke-width:1.0;"/><polygon fill="#181818" points="507.888,6114.4969,499.4506,6109.4166,502.9262,6113.8797,498.4631,6117.3554,507.888,6114.4969" style="stroke:#181818;stroke-width:1.0;"/></g><!--MD5=[a220148d5994b99d85bc496fd414977a]
link sc to US1001--><g id="link_sc_US1001"><path d="M106.826,2416.62 C127.091,2366.57 170.004,2280.75 238,2241 C390.225,2152.02 599.741,2154.52 733.918,2168.55 " fill="none" id="sc-to-US1001" style="stroke:#181818;stroke-width:1.0;"/><polygon fill="#181818" points="739.057,2169.1,730.5317,2164.1685,734.0852,2168.57,729.6837,2172.1234,739.057,2169.1" style="stroke:#181818;stroke-width:1.0;"/></g><!--MD5=[a3f302414b821388721eb2baf339507d]
link sc to US1002--><g id="link_sc_US1002"><path d="M131.572,2417.21 C158.908,2392.93 197.752,2363.19 238,2348 C387.214,2291.7 570.09,2282.03 699.836,2284.12 " fill="none" id="sc-to-US1002" style="stroke:#181818;stroke-width:1.0;"/><polygon fill="#181818" points="705.2,2284.21,696.2723,2280.0512,700.2008,2284.1214,696.1306,2288.05,705.2,2284.21" style="stroke:#181818;stroke-width:1.0;"/></g><!--MD5=[f03b20eac2af094cf1fb71e417012fbc]
link sc to US1003--><g id="link_sc_US1003"><path d="M131.767,2451.73 C160.968,2449.28 201.993,2445.87 238,2443 C407.598,2429.5 603.042,2414.66 730.141,2405.11 " fill="none" id="sc-to-US1003" style="stroke:#181818;stroke-width:1.0;"/><polygon fill="#181818" points="735.386,2404.72,726.1109,2401.4076,730.4001,2405.0957,726.712,2409.385,735.386,2404.72" style="stroke:#181818;stroke-width:1.0;"/></g><!--MD5=[2dbe668ae5861d8de2e10128c405854e]
link sc to US1004--><g id="link_sc_US1004"><path d="M131.573,2457.95 C219.745,2464.68 442.088,2481.66 619.114,2495.18 " fill="none" id="sc-to-US1004" style="stroke:#181818;stroke-width:1.0;"/><polygon fill="#181818" points="624.338,2495.58,615.668,2490.9076,619.3525,2495.2,615.06,2498.8845,624.338,2495.58" style="stroke:#181818;stroke-width:1.0;"/></g><!--MD5=[eb605b6e9250efbd406989a50038beac]
link sc to US1005--><g id="link_sc_US1005"><path d="M122.725,2493.03 C149.295,2523.94 191.179,2565.63 238,2586 C385.504,2650.16 570.693,2658.41 701.549,2653.83 " fill="none" id="sc-to-US1005" style="stroke:#181818;stroke-width:1.0;"/><polygon fill="#181818" points="706.569,2653.64,697.4295,2649.9699,701.5723,2653.8218,697.7204,2657.9646,706.569,2653.64" style="stroke:#181818;stroke-width:1.0;"/></g><!--MD5=[293711b82555bd01de721dbcec05ad8d]
link sc to US1006--><g id="link_sc_US1006"><path d="M104.966,2493.01 C124.011,2546.94 166.553,2644.69 238,2695 C282.991,2726.68 334.047,2750.86 387.141,2769.25 " fill="none" id="sc-to-US1006" style="stroke:#181818;stroke-width:1.0;"/><polygon fill="#181818" points="391.954,2770.9,384.738,2764.197,387.2243,2769.2782,382.1432,2771.7645,391.954,2770.9" style="stroke:#181818;stroke-width:1.0;"/></g><!--MD5=[8d96b20058dc22d60e87dd6fe974e141]
link we to US2001--><g id="link_we_US2001"><path d="M101.7226,1398.94 C117.591,1339.24 157.271,1224.85 238,1171 C361.487,1088.63 530.061,1074.97 661.391,1080.36 " fill="none" id="we-to-US2001" style="stroke:#181818;stroke-width:1.0;"/><polygon fill="#181818" points="666.439,1080.57,657.6198,1076.1858,661.4436,1080.3545,657.275,1084.1784,666.439,1080.57" style="stroke:#181818;stroke-width:1.0;"/></g><!--MD5=[ffc4a86a47ad1e6539fb32917a27e994]
link we to US2002--><g id="link_we_US2002"><path d="M120.428,1398.83 C146.566,1365.72 189.107,1319.66 238,1297 C367.581,1236.95 528.026,1221.74 654.24,1221.26 " fill="none" id="we-to-US2002" style="stroke:#181818;stroke-width:1.0;"/><polygon fill="#181818" points="659.469,1221.25,650.4599,1217.2706,654.469,1221.2614,650.4782,1225.2706,659.469,1221.25" style="stroke:#181818;stroke-width:1.0;"/></g><!--MD5=[c4226a73754b26330b9476084b6b2997]
link we to US2003--><g id="link_we_US2003"><path d="M169.539,1437 C194.968,1437 225.588,1437 259.614,1437 " fill="none" id="we-to-US2003" style="stroke:#181818;stroke-width:1.0;"/><polygon fill="#181818" points="264.658,1437,255.658,1433,259.658,1437,255.658,1441,264.658,1437" style="stroke:#181818;stroke-width:1.0;"/></g><!--MD5=[c8b5380a8f8a0aa88898e8a52167e355]
link we to US2004--><g id="link_we_US2004"><path d="M122.479,1475.28 C149.199,1507.29 191.431,1551.67 238,1577 C282.855,1601.4 331.667,1621.74 381.599,1638.7 " fill="none" id="we-to-US2004" style="stroke:#181818;stroke-width:1.0;"/><polygon fill="#181818" points="386.435,1640.33,379.1822,1633.6669,381.6965,1638.7343,376.6291,1641.2486,386.435,1640.33" style="stroke:#181818;stroke-width:1.0;"/></g><!--MD5=[6db5b67552a3bf952fe467223c6ee054]
link we to US2005--><g id="link_we_US2005"><path d="M93.8492,1475.16 C97.9101,1559.74 120.103,1763.77 238,1869 C273.382,1900.58 314.351,1925.36 358.07,1944.73 " fill="none" id="we-to-US2005" style="stroke:#181818;stroke-width:1.0;"/><polygon fill="#181818" points="362.859,1946.83,356.2142,1939.5604,358.2775,1944.8276,353.0103,1946.8908,362.859,1946.83" style="stroke:#181818;stroke-width:1.0;"/></g><!--MD5=[bd0971f46b873691336ad19c1982193a]
link spc to US9001--><g id="link_spc_US9001"><path d="M178.251,941.81 C312.462,933.65 574.059,917.73 732.95,908.06 " fill="none" id="spc-to-US9001" style="stroke:#181818;stroke-width:1.0;"/><polygon fill="#181818" points="738.089,907.75,728.862,904.3057,733.0983,908.0546,729.3494,912.2908,738.089,907.75" style="stroke:#181818;stroke-width:1.0;"/></g><!--MD5=[1266ab68daaa47372f52d5f2d833e7dd]
link spc to US9002--><g id="link_spc_US9002"><path d="M178.251,952.08 C313.238,960.11 577.09,975.83 735.697,985.27 " fill="none" id="spc-to-US9002" style="stroke:#181818;stroke-width:1.0;"/><polygon fill="#181818" points="740.826,985.58,732.0791,981.0531,735.8348,985.2834,731.6046,989.039,740.826,985.58" style="stroke:#181818;stroke-width:1.0;"/></g><!--MD5=[fd09f623658157356172324894a4e065]
link sm to US3001--><g id="link_sm_US3001"><path d="M143.091,683.29 C220.244,674.5 374.6,656.92 520.893,640.26 " fill="none" id="sm-to-US3001" style="stroke:#181818;stroke-width:1.0;"/><polygon fill="#181818" points="526.094,639.66,516.6995,636.7032,521.1261,640.2253,517.604,644.6519,526.094,639.66" style="stroke:#181818;stroke-width:1.0;"/></g><!--MD5=[e53573aff2fa9bcf69e5b460569f9d15]
link sm to US3002--><g id="link_sm_US3002"><path d="M143.091,694.64 C236.279,705.14 442.094,728.32 610.296,747.26 " fill="none" id="sm-to-US3002" style="stroke:#181818;stroke-width:1.0;"/><polygon fill="#181818" points="615.762,747.87,607.2679,742.885,610.7936,747.3087,606.3699,750.8344,615.762,747.87" style="stroke:#181818;stroke-width:1.0;"/></g><!--MD5=[81fa285ca7083cf86427f3ac76c7b69d]
link c to US1501--><g id="link_c_US1501"><path d="M127.282,240.82 C154.797,215.55 195.697,182.6 238,165 C327.433,127.8 429.578,105.78 525.11,92.9 " fill="none" id="c-to-US1501" style="stroke:#181818;stroke-width:1.0;"/><polygon fill="#181818" points="530.232,92.22,520.7828,89.4428,525.2757,92.8799,521.8386,97.3728,530.232,92.22" style="stroke:#181818;stroke-width:1.0;"/></g><!--MD5=[201160c168f59ce496662fe714de4702]
link c to US3501--><g id="link_c_US3501"><path d="M127.19,275 C181.407,275 293.399,275 414.131,275 " fill="none" id="c-to-US3501" style="stroke:#181818;stroke-width:1.0;"/><polygon fill="#181818" points="419.156,275,410.156,271,414.156,275,410.156,279,419.156,275" style="stroke:#181818;stroke-width:1.0;"/></g><!--MD5=[f52312478eae2f126bf71190d9bdaba4]
link c to US1502--><g id="link_c_US1502"><path d="M127.129,309.39 C154.561,334.71 195.425,367.49 238,384 C376,437.52 543.333,451.24 670.486,452.27 " fill="none" id="c-to-US1502" style="stroke:#181818;stroke-width:1.0;"/><polygon fill="#181818" points="675.75,452.3,666.7765,448.2409,670.7501,452.2671,666.7239,456.2408,675.75,452.3" style="stroke:#181818;stroke-width:1.0;"/></g><!--MD5=[6801bfb5f5b8e1850b9e3f85ab118234]
@startuml
left to right direction
actor "Project Manager" as pm
actor "Sales Clerk" as sc
actor "Warehouse Employee" as we
actor "Software Product Client" as spc
actor "Sales Manager" as sm
actor "Customer" as c

  usecase "G002: Elaborate a Domain Model using DDD." as G002
  usecase "G003: Configure the project repository." as G003
  usecase "G004: Configure the project structure to facilitate/accelerate the development of upcoming user stories." as G004
  usecase "US1001: Specify a new product for sale." as US1001
  usecase "US1002: View/search the products catalog." as US1002
  usecase "US1003: Register a new customer." as US1003
  usecase "US1004: Create a new products order on behalf of a given customer." as US1004
  usecase "US2001: Set up the warehouse plant by uploading a JSON file." as US2001
  usecase "US9001: Prepare a presentation." as US9001
  usecase "US1900: The system has the possibility of being initialized (bootstrap) with some information related to the product catalog and auxiliary information." as US1900
  usecase "US2002: Configure the AGVs available on the warehouse." as US2002
  usecase "US1005: Define a new category of products." as US1005
  
  usecase "US2003: Access the list of orders that need to be prepared by an AGV and be able to ask/force any of those orders to be immediately prepared by an AGV available." as US2003
  usecase "US3000: Specify a grammar allowing to express several kinds of questionnaires." as US3000
  usecase "US3001: Create a new questionnaire to be further answered by customers meeting the specified criteria." as US3001
  usecase "US4001: The "AGVManager" component supports properly, at request, the needs of the "BackOfficeApp" application as well as the needs the AGV digital twin." as US4001
  usecase "US4002: The "AGVManager" component is enhanced with a basic FIFO algorithm to automatically assign tasks to AGVs." as US4002
  usecase "US5001: Start developing the input communication module of the AGV digital twin to accept requests from the "AGVManager"." as US5001
  usecase "US5002: Start developing the output communication module of the AGV digital twin to update its status on the "AGVManager"." as US5002
  usecase "US2004: Access the list of orders that have already been prepared by the AGVs and be able to update any of those orders as having been dispatched for customer delivery. " as US2004
  usecase "US2005: Open a web dashboard presenting the current status of the AGVs as well as their position in the warehouse layout and keeps updated automatically." as US2005
  usecase "US1501: View/search the product catalog and be able to add a product to the shopping cart." as US1501
  usecase "US1901: The "OrdersServer" component supports properly, at request, the needs of the "CustomerAppMain" application." as US1901
  usecase "US3002: Get a statistical report regarding a previously set up questionnaire." as US3002
  usecase "US3501: List of questionnaires that the system is asking me to answer and be able to answer any of those questionnaires." as US3501
  usecase "US4003: Communications (of the AGVManager) made through the SPOMS2022 protocol to be secured/protected." as US4003
  usecase "US5003: Input communications (of the AGV Digital Twin) made through the SPOMS2022 protocol to be secured/protected." as US5003
  usecase "US5004: Output communications  (of the AGV Digital Twin) made through the SPOMS2022 protocol to be secured/protected." as US5004
  usecase "US5100: Develop and integrate the others components/parts of the AGV digital twin (e.g.: movement, obstacle sensors, control unit)." as US5100
  usecase "US9002: Prepare a presentation" as US9002  
  usecase "US1006: Access a list of orders that had been dispatched for customer delivery and be able to update some of those orders to as being delivered. " as US1006  
  usecase "US2006: Communications made through the SPOMS2022 protocol to be secured/protected." as US2006  
  usecase "US1502: View/check the status of my open orders." as US1502
  usecase "US1902: I want the communications made through the SPOMS2022 protocol to be secured/protected." as US1902
  
  

pm - -> G002
pm - -> G003
pm - -> G004
pm - -> US1900
pm - -> US3000
pm - -> US4001
pm - -> US4002
pm - -> US5001
pm - -> US5002
pm - -> US1901
pm - -> US4003
pm - -> US5003
pm - -> US5004
pm - -> US5100
pm - -> US2006
pm - -> US1902

sc - -> US1001
sc - -> US1002
sc - -> US1003
sc - -> US1004
sc - -> US1005
sc - -> US1006

we - -> US2001
we - -> US2002
we - -> US2003
we - -> US2004
we - -> US2005

spc - -> US9001
spc - -> US9002

sm - -> US3001
sm - -> US3002

c - -> US1501
c - -> US3501
c - -> US1502
@enduml

PlantUML version 1.2022.6beta5(Unknown compile time)
(GPL source distribution)
Java Runtime: Java(TM) SE Runtime Environment
JVM: Java HotSpot(TM) 64-Bit Server VM
Default Encoding: UTF-8
Language: en
Country: US
--></g></svg>